<svg width="24" height="24" viewBox="0 0 24 24" fill="none" xmlns="http://www.w3.org/2000/svg">
<path d="M8.84619 20.8948L8.18127 20.7625C7.57884 20.652 7.09592 20.1978 6.94849 19.5964C6.66554 17.9918 6.81481 16.3293 7.37909 14.8007C9.26712 14.5916 10.7556 13.0896 10.9257 11.1954C11.0692 9.59682 9.82949 5.45694 9.82949 5.45694L5.03387 5.02634C5.03387 5.02634 3.0765 8.87916 2.93297 10.4777C2.76217 12.38 3.95055 14.1303 5.7784 14.6812C6.06135 16.2858 5.91207 17.9483 5.3478 19.4768C5.1043 20.0351 4.55617 20.3968 3.95098 20.4069L3.24915 20.4164C3.24915 20.4164 2.85095 20.3645 2.79928 20.94L9.19344 21.5141C9.24511 20.9386 8.84619 20.8948 8.84619 20.8948ZM4.77695 9.38438C4.27924 9.14499 4.06984 8.54746 4.30922 8.04975L5.36174 5.8615L9.35809 6.22033L10.0039 8.56108C10.1508 9.09347 9.83834 9.64414 9.30595 9.79104L9.13415 9.83844C7.73573 10.2243 6.24487 10.0904 4.93755 9.46163L4.77695 9.38438Z" fill="#F2B6D4"/>
<path d="M21.662 16.2429L21.0319 16.4932C20.4661 16.7277 19.8139 16.6087 19.3634 16.1839C18.254 14.9905 17.4761 13.5137 17.1193 11.9239C18.5907 10.7225 19.0243 8.65289 18.1379 6.97019C17.3899 5.55019 14.0999 2.74819 14.0999 2.74819L9.83986 4.99222C9.83986 4.99222 10.2899 9.29024 11.0379 10.7102C11.928 12.4 13.8767 13.2239 15.7105 12.6932C16.8199 13.8866 17.5978 15.3634 17.9546 16.9532C18.0535 17.5542 17.7898 18.1557 17.2872 18.493L16.7032 18.8823C16.7032 18.8823 16.3407 19.0551 16.61 19.5663L22.29 16.5742C22.0207 16.063 21.662 16.2429 21.662 16.2429ZM11.992 8.79051C11.4441 8.85995 10.9436 8.47207 10.8742 7.92417L10.5689 5.51522L14.1189 3.64519L15.9329 5.25941C16.3454 5.62656 16.3823 6.25865 16.0151 6.67123L15.8967 6.80437C14.9323 7.88809 13.6079 8.58571 12.1688 8.7681L11.992 8.79051Z" fill="#F2B6D4"/>
</svg>
