<svg width="24" height="24" viewBox="0 0 24 24" fill="none" xmlns="http://www.w3.org/2000/svg">
<g clip-path="url(#clip0_919_5154)">
<path d="M8.72633 19.7455C7.20749 18.3875 6.68788 16.2278 7.35138 14.3217L9.05409 9.47054C9.22995 8.97152 9.89345 8.90607 10.1572 9.36419L10.4051 9.81413C10.5969 10.1332 10.6369 10.5259 10.517 10.8776L9.73357 13.1191L10.0773 13.43L14.8417 7.90803C15.1215 7.5808 15.6011 7.54808 15.9289 7.8344C16.2406 8.12073 16.2726 8.61975 16.0008 8.9388L12.4435 13.0537L12.9072 13.4709L17.2639 8.41523C17.5437 8.088 18.0313 8.05528 18.343 8.34161C18.6628 8.62793 18.6948 9.13513 18.399 9.45418L14.0503 14.5099L14.5139 14.9271L18.2631 10.5749C18.5429 10.2477 19.0305 10.215 19.3423 10.5013C19.6541 10.7876 19.694 11.2867 19.4142 11.5893L15.6651 15.9579L16.1207 16.3751L18.6548 13.4382C18.9346 13.111 19.4222 13.0782 19.742 13.3646C20.0617 13.6509 20.0857 14.1499 19.8059 14.4526L15.6491 19.2956C13.8584 21.3817 10.7568 21.578 8.72633 19.7455ZM11.6761 9.72415L13.9464 7.08996C14.1382 6.86908 14.3781 6.68092 14.6419 6.57457L14.9456 5.93647C15.1375 5.55198 14.9776 5.0775 14.5939 4.88934C14.2182 4.70119 13.7545 4.8648 13.5707 5.24929L11.5642 9.45418C11.6042 9.54417 11.6521 9.63416 11.6761 9.72415ZM11.2045 8.7261V8.767L13.4268 4.12854C13.6026 3.73586 13.4508 3.26956 13.067 3.0814C12.6913 2.88916 12.2277 3.04868 12.0438 3.44136L9.93342 7.86712C10.453 7.95711 10.9087 8.2598 11.2045 8.7261ZM6.22423 13.9045L7.92694 9.05333C8.14278 8.43977 8.64639 8.02256 9.24594 7.88348L10.9566 4.29215C11.1405 3.89948 10.9806 3.43317 10.6049 3.24502C10.2212 3.05686 9.76555 3.2123 9.58169 3.60497L6.40809 10.2314L6.00839 10.0268L6.17627 7.64624C6.20824 7.27811 6.06435 6.90998 5.80855 6.6482L5.44082 6.27188C5.06511 5.92011 4.44958 6.15735 4.40961 6.68092L4.00991 11.8266C3.90599 13.4955 4.62544 15.0907 5.88848 16.0887C5.8725 15.3688 5.97642 14.6244 6.22423 13.9045Z" fill="#FFCD7B"/>
</g>
<defs>
<clipPath id="clip0_919_5154">
<rect width="24" height="24" fill="white"/>
</clipPath>
</defs>
</svg>
