<svg width="24" height="24" viewBox="0 0 24 24" fill="none" xmlns="http://www.w3.org/2000/svg">
<g clip-path="url(#clip0_919_5167)">
<path d="M13 3C9.22999 3 6.18999 5.95 5.99999 9.66L4.07999 12.19C3.83999 12.5 4.07999 13 4.49999 13H5.99999V16C5.99999 17.11 6.88999 18 7.99999 18H8.99999V21H16V16.31C18.37 15.19 20 12.8 20 10C20 6.14 16.88 3 13 3ZM17.06 9.57L15.1 10.09L16.54 11.54C16.89 11.88 16.89 12.46 16.54 12.81C16.19 13.16 15.61 13.16 15.27 12.81L13.81 11.37L13.3 13.33C13.18 13.82 12.68 14.1 12.21 13.97C11.72 13.84 11.44 13.35 11.57 12.87L12.1 10.9L10.13 11.43C9.64999 11.56 9.14999 11.28 9.02999 10.79C8.89999 10.32 9.17999 9.82 9.66999 9.7L11.63 9.19L10.19 7.73C9.83999 7.39 9.83999 6.82 10.19 6.46C10.54 6.11 11.12 6.11 11.46 6.46L12.91 7.9L13.43 5.94C13.55 5.46 14.04 5.18 14.5 5.3C15 5.43 15.28 5.92 15.16 6.41L14.63 8.37L16.59 7.84C17.08 7.72 17.57 8 17.7 8.5C17.82 8.96 17.54 9.45 17.06 9.57Z" fill="#79DEED"/>
</g>
<defs>
<clipPath id="clip0_919_5167">
<rect width="24" height="24" fill="white"/>
</clipPath>
</defs>
</svg>
