<svg width="24" height="24" viewBox="0 0 24 24" fill="none" xmlns="http://www.w3.org/2000/svg">
<g clip-path="url(#clip0_919_5175)">
<path d="M21 10.65C21 9.7065 20.2227 8.95 19.2727 8.95H13.8145L14.6436 5.0655C14.6609 4.9805 14.6695 4.887 14.6695 4.7935C14.6695 4.445 14.5227 4.122 14.2895 3.8925V3.8925C13.7809 3.39663 12.9691 3.39856 12.4629 3.89683L7.69136 8.593C7.37182 8.9075 7.18182 9.3325 7.18182 9.8V18.3C7.18182 18.7509 7.3638 19.1833 7.68772 19.5021C8.01165 19.8209 8.45099 20 8.90909 20H16.6818C17.3986 20 18.0118 19.575 18.2709 18.963L20.8791 12.9705C20.9568 12.775 21 12.571 21 12.35V10.65ZM2 18.2727C2 19.2267 2.77333 20 3.72727 20V20C4.68122 20 5.45455 19.2267 5.45455 18.2727V11.5273C5.45455 10.5733 4.68122 9.8 3.72727 9.8V9.8C2.77333 9.8 2 10.5733 2 11.5273V18.2727Z" fill="#84AAFF"/>
</g>
<defs>
<clipPath id="clip0_919_5175">
<rect width="24" height="24" fill="white"/>
</clipPath>
</defs>
</svg>
