<svg width="24" height="22" viewBox="0 0 24 22" fill="none" xmlns="http://www.w3.org/2000/svg">
<path d="M14.0426 7.51645L13.8168 8.6H14.9236H21.8182C22.517 8.6 23.1 9.17194 23.1 9.9V12.1C23.1 12.2623 23.0707 12.4127 23.0127 12.5656L19.7244 20.3061L19.7243 20.3061L19.7209 20.3143C19.5285 20.7801 19.0754 21.1 18.5455 21.1H8.72727C8.38973 21.1 8.0645 20.9649 7.82353 20.7219C7.5823 20.4787 7.44545 20.1472 7.44545 19.8V8.8C7.44545 8.43966 7.58647 8.11541 7.82812 7.87175L13.8554 1.79422C14.139 1.50831 14.6005 1.5067 14.8861 1.79024C15.0191 1.9252 15.1036 2.11729 15.1036 2.321C15.1036 2.38888 15.0975 2.44938 15.0888 2.49461L14.0426 7.51645ZM3.46364 10.9818V19.8182C3.46364 20.5261 2.88975 21.1 2.18182 21.1C1.47389 21.1 0.9 20.5261 0.9 19.8182V10.9818C0.9 10.2739 1.47389 9.7 2.18182 9.7C2.88975 9.7 3.46364 10.2739 3.46364 10.9818Z" stroke="#182848" stroke-width="1.8"/>
</svg>
